<svg width="64" height="64" version="1.1" xmlns="http://www.w3.org/2000/svg" desc="Created with imagetracer.js version 1.2.6" ><path fill="rgb(168,169,200)" stroke="rgb(168,169,200)" stroke-width="1" opacity="1" d="M 11.5 2 L 11.5 3 L 11.5 2 Z " /><path fill="rgb(168,169,200)" stroke="rgb(168,169,200)" stroke-width="1" opacity="1" d="M 36.5 2 L 36.5 3 L 36.5 2 Z " /><path fill="rgb(168,169,200)" stroke="rgb(168,169,200)" stroke-width="1" opacity="1" d="M 8.5 5 L 8.5 6 L 8.5 5 Z " /><path fill="rgb(168,169,200)" stroke="rgb(168,169,200)" stroke-width="1" opacity="1" d="M 39.5 5 L 39.5 6 L 39.5 5 Z " /><path fill="rgb(168,169,200)" stroke="rgb(168,169,200)" stroke-width="1" opacity="1" d="M 29.5 14 Q 31 15 28.5 16 Q 27 15 29.5 14 Z " /><path fill="rgb(168,169,200)" stroke="rgb(168,169,200)" stroke-width="1" opacity="1" d="M 28.5 40 Q 31 41 29.5 42 Q 27 41 28.5 40 Z " /><path fill="rgb(168,169,200)" stroke="rgb(168,169,200)" stroke-width="1" opacity="1" d="M 35.5 46 L 35.5 47 L 35.5 46 Z " /><path fill="rgb(168,169,200)" stroke="rgb(168,169,200)" stroke-width="1" opacity="1" d="M 22.5 56 L 22.5 57 L 22.5 56 Z " /><path fill="rgb(168,169,200)" stroke="rgb(168,169,200)" stroke-width="1" opacity="1" d="M 25.5 56 L 25.5 57 L 25.5 56 Z " /><path fill="rgb(168,169,200)" stroke="rgb(168,169,200)" stroke-width="1" opacity="1" d="M 8.5 58 L 8.5 59 L 8.5 58 Z " /><path fill="rgb(168,169,200)" stroke="rgb(168,169,200)" stroke-width="1" opacity="1" d="M 39.5 58 L 39.5 59 L 39.5 58 Z " /><path fill="rgb(168,169,200)" stroke="rgb(168,169,200)" stroke-width="1" opacity="1" d="M 22.5 59 L 22.5 60 L 22.5 59 Z " /><path fill="rgb(168,169,200)" stroke="rgb(168,169,200)" stroke-width="1" opacity="1" d="M 25.5 59 L 25.5 60 L 25.5 59 Z " /><path fill="rgb(168,169,200)" stroke="rgb(168,169,200)" stroke-width="1" opacity="1" d="M 11.5 61 L 11.5 62 L 11.5 61 Z " /><path fill="rgb(168,169,200)" stroke="rgb(168,169,200)" stroke-width="1" opacity="1" d="M 36.5 61 L 36.5 62 L 36.5 61 Z " /><path fill="rgb(172,182,208)" stroke="rgb(172,182,208)" stroke-width="1" opacity="1" d="M 12.5 2 L 12.5 3 L 12.5 2 Z " /><path fill="rgb(172,182,208)" stroke="rgb(172,182,208)" stroke-width="1" opacity="1" d="M 35.5 2 L 35.5 3 L 35.5 2 Z " /><path fill="rgb(172,182,208)" stroke="rgb(172,182,208)" stroke-width="1" opacity="1" d="M 8.5 6 L 8.5 7 L 8.5 6 Z " /><path fill="rgb(172,182,208)" stroke="rgb(172,182,208)" stroke-width="1" opacity="1" d="M 39.5 6 L 39.5 7 L 39.5 6 Z " /><path fill="rgb(172,182,208)" stroke="rgb(172,182,208)" stroke-width="1" opacity="1" d="M 38.5 48 L 38.5 49 L 38.5 48 Z " /><path fill="rgb(172,182,208)" stroke="rgb(172,182,208)" stroke-width="1" opacity="1" d="M 8.5 57 L 8.5 58 L 8.5 57 Z " /><path fill="rgb(172,182,208)" stroke="rgb(172,182,208)" stroke-width="1" opacity="1" d="M 39.5 57 L 39.5 58 L 39.5 57 Z " /><path fill="rgb(172,182,208)" stroke="rgb(172,182,208)" stroke-width="1" opacity="1" d="M 12.5 61 L 12.5 62 L 12.5 61 Z " /><path fill="rgb(172,182,208)" stroke="rgb(172,182,208)" stroke-width="1" opacity="1" d="M 35.5 61 L 35.5 62 L 35.5 61 Z " /><path fill="rgb(172,183,208)" stroke="rgb(172,183,208)" stroke-width="1" opacity="1" d="M 13.5 2 L 34.5 2 L 39 4.5 L 40 7.5 L 8.5 8 L 9 6.5 Q 8.5 3.5 10.5 3 L 13.5 2 Z M 18 4 L 18 6 L 22 6 L 22 4 L 18 4 Z M 24 4 L 24 6 L 30 6 L 30 4 L 24 4 Z " /><path fill="rgb(172,183,208)" stroke="rgb(172,183,208)" stroke-width="1" opacity="1" d="M 8 54 L 39.5 54 Q 40.25 53.75 40 56.5 L 37.5 61 L 34.5 62 L 13.5 62 L 9 59.5 L 8 54 Z M 22 56 L 22 60 L 26 60 L 26 56 L 22 56 Z " /><path fill="rgb(0,0,0)" stroke="rgb(0,0,0)" stroke-width="1" opacity="0" d="M 0 0 L 9 0.5 L 6 3.5 L 6 60.5 L 9 63.5 L 8.5 64 L 0.5 64 L 0 63.5 L 0 0 Z " /><path fill="rgb(0,0,0)" stroke="rgb(0,0,0)" stroke-width="1" opacity="0" d="M 39.5 0 L 64 0 L 64 64 L 39 63.5 L 42 60.5 L 42 47.5 Q 44.85 45.65 45 42 L 60 42 L 60 14 L 42 14 L 42 3.5 L 39 0.5 L 39.5 0 Z " /><path fill="rgb(191,214,239)" stroke="rgb(191,214,239)" stroke-width="1" opacity="1" d="M 35.5 45 L 35.5 46 L 35.5 45 Z " /><path fill="rgb(228,239,250)" stroke="rgb(228,239,250)" stroke-width="1" opacity="1" d="M 14.5 13 L 14.5 14 L 14.5 13 Z " /><path fill="rgb(228,239,250)" stroke="rgb(228,239,250)" stroke-width="1" opacity="1" d="M 28.5 14 L 28.5 15 L 28.5 14 Z " /><path fill="rgb(228,239,250)" stroke="rgb(228,239,250)" stroke-width="1" opacity="1" d="M 11.5 16 L 11.5 17 L 11.5 16 Z " /><path fill="rgb(228,239,250)" stroke="rgb(228,239,250)" stroke-width="1" opacity="1" d="M 17.5 16 L 17.5 17 L 17.5 16 Z " /><path fill="rgb(228,239,250)" stroke="rgb(228,239,250)" stroke-width="1" opacity="1" d="M 14.5 19 L 14.5 20 L 14.5 19 Z " /><path fill="rgb(228,239,250)" stroke="rgb(228,239,250)" stroke-width="1" opacity="1" d="M 23.5 27 L 23.5 28 L 23.5 27 Z " /><path fill="rgb(228,239,250)" stroke="rgb(228,239,250)" stroke-width="1" opacity="1" d="M 20.5 28 L 20.5 29 L 20.5 28 Z " /><path fill="rgb(228,239,250)" stroke="rgb(228,239,250)" stroke-width="1" opacity="1" d="M 28.5 41 L 28.5 42 L 28.5 41 Z " /><path fill="rgb(141,107,158)" stroke="rgb(141,107,158)" stroke-width="1" opacity="0.596078431372549" d="M 9.5 0 L 11 0.5 L 7 3.5 L 6.5 5 L 6 3.5 L 9.5 0 Z " /><path fill="rgb(141,107,158)" stroke="rgb(141,107,158)" stroke-width="1" opacity="0.596078431372549" d="M 37.5 0 L 42 3.5 L 41.5 5 L 38.5 1 Q 36.13 0.87 37.5 0 Z " /><path fill="rgb(141,107,158)" stroke="rgb(141,107,158)" stroke-width="1" opacity="0.596078431372549" d="M 58.5 14 Q 60.75 13.25 60 15.5 L 59.5 16 Q 57 15 58.5 14 Z " /><path fill="rgb(141,107,158)" stroke="rgb(141,107,158)" stroke-width="1" opacity="0.596078431372549" d="M 59.5 40 L 60 42 L 58 41.5 L 59.5 40 Z " /><path fill="rgb(141,107,158)" stroke="rgb(141,107,158)" stroke-width="1" opacity="0.596078431372549" d="M 44.5 42 L 45 43.5 L 42.5 47 L 42 45.5 L 44.5 42 Z " /><path fill="rgb(141,107,158)" stroke="rgb(141,107,158)" stroke-width="1" opacity="0.596078431372549" d="M 6.5 59 L 9.5 63 L 11 63.5 L 9.5 64 L 6 60.5 L 6.5 59 Z " /><path fill="rgb(141,107,158)" stroke="rgb(141,107,158)" stroke-width="1" opacity="0.596078431372549" d="M 41.5 59 L 42 60.5 L 37.5 64 L 37.5 63 L 41 60.5 L 41.5 59 Z " /><path fill="rgb(141,108,159)" stroke="rgb(141,108,159)" stroke-width="1" opacity="0.996078431372549" d="M 11.5 0 L 13 0.5 L 11.5 1 L 11.5 0 Z " /><path fill="rgb(141,108,159)" stroke="rgb(141,108,159)" stroke-width="1" opacity="0.996078431372549" d="M 35.5 0 L 37 0.5 L 35.5 1 L 35.5 0 Z " /><path fill="rgb(141,108,159)" stroke="rgb(141,108,159)" stroke-width="1" opacity="0.996078431372549" d="M 9.5 1 L 10 1.5 L 7.5 4 L 7 3.5 L 9.5 1 Z " /><path fill="rgb(141,108,159)" stroke="rgb(141,108,159)" stroke-width="1" opacity="0.996078431372549" d="M 38.5 1 L 41 3.5 L 40.5 4 L 38 1.5 L 38.5 1 Z " /><path fill="rgb(141,108,159)" stroke="rgb(141,108,159)" stroke-width="1" opacity="0.996078431372549" d="M 6.5 5 L 7 6.5 L 6 6.5 L 6.5 5 Z " /><path fill="rgb(141,108,159)" stroke="rgb(141,108,159)" stroke-width="1" opacity="0.996078431372549" d="M 41.5 5 L 42 6.5 L 41 6.5 L 41.5 5 Z " /><path fill="rgb(141,108,159)" stroke="rgb(141,108,159)" stroke-width="1" opacity="0.996078431372549" d="M 57.5 14 L 57.5 15 L 57.5 14 Z " /><path fill="rgb(141,108,159)" stroke="rgb(141,108,159)" stroke-width="1" opacity="0.996078431372549" d="M 59.5 16 L 59.5 17 L 59.5 16 Z " /><path fill="rgb(141,108,159)" stroke="rgb(141,108,159)" stroke-width="1" opacity="0.996078431372549" d="M 59.5 39 L 59.5 40 L 59.5 39 Z " /><path fill="rgb(141,108,159)" stroke="rgb(141,108,159)" stroke-width="1" opacity="0.996078431372549" d="M 57.5 41 L 57.5 42 L 57.5 41 Z " /><path fill="rgb(141,108,159)" stroke="rgb(141,108,159)" stroke-width="1" opacity="0.996078431372549" d="M 42.5 43 L 44 43.5 L 41.5 45 Q 40 44 42.5 43 Z " /><path fill="rgb(141,108,159)" stroke="rgb(141,108,159)" stroke-width="1" opacity="0.996078431372549" d="M 6.5 57 L 7 58.5 L 6 58.5 L 6.5 57 Z " /><path fill="rgb(141,108,159)" stroke="rgb(141,108,159)" stroke-width="1" opacity="0.996078431372549" d="M 41.5 57 L 42 58.5 L 41 58.5 L 41.5 57 Z " /><path fill="rgb(141,108,159)" stroke="rgb(141,108,159)" stroke-width="1" opacity="0.996078431372549" d="M 7.5 60 L 10 62.5 L 9.5 63 L 7 60.5 L 7.5 60 Z " /><path fill="rgb(141,108,159)" stroke="rgb(141,108,159)" stroke-width="1" opacity="0.996078431372549" d="M 40.5 60 L 41 60.5 L 38.5 63 L 38 62.5 L 40.5 60 Z " /><path fill="rgb(141,108,159)" stroke="rgb(141,108,159)" stroke-width="1" opacity="0.996078431372549" d="M 11.5 63 L 13 63.5 L 11.5 64 L 11.5 63 Z " /><path fill="rgb(141,108,159)" stroke="rgb(141,108,159)" stroke-width="1" opacity="0.996078431372549" d="M 35.5 63 L 37 63.5 L 35.5 64 L 35.5 63 Z " /><path fill="rgb(141,108,159)" stroke="rgb(141,108,159)" stroke-width="1" opacity="1" d="M 13.5 0 L 34.5 0 L 37.5 1 L 41 4.5 L 42 7.5 L 42 14 L 56.5 14 L 59 15 L 60 17.5 L 60 38.5 L 59 41 L 56.5 42 L 44.5 42 L 43.5 43 L 43 41.5 L 44.5 40 L 58 40 L 58 16 L 30 16 L 30 39.5 L 30.5 40 L 36.5 40 Q 38.75 40.75 38 44.5 L 37 47 L 38.5 47 L 42.5 44 L 42 45.5 L 42 56.5 L 41 59.5 L 37.5 63 L 34.5 64 L 13.5 64 L 10.5 63 L 7 59.5 L 6 56.5 L 6 7.5 L 7 4.5 L 10.5 1 L 13.5 0 Z M 11 2 Q 7 3 8 8 L 40 8 Q 40 8 40 5 L 38 2 L 11 2 Z M 8 10 L 8 52 L 40 52 L 40 48 L 38 48 L 36 49 L 36 45 L 37 42 Q 32 43 29 41 L 28 39 L 28 18 L 29 15 L 32 14 L 40 14 Q 40 10 40 10 L 8 10 Z M 8 54 L 8 60 L 11 62 L 38 62 L 40 60 Q 41 54 40 54 L 8 54 Z " /><path fill="rgb(141,108,159)" stroke="rgb(141,108,159)" stroke-width="1" opacity="1" d="M 19 4 Q 22 3 21 6 Q 18 7 19 4 Z " /><path fill="rgb(141,108,159)" stroke="rgb(141,108,159)" stroke-width="1" opacity="1" d="M 25 4 L 29 4 L 29 6 L 25 6 L 25 4 Z " /><path fill="rgb(141,108,159)" stroke="rgb(141,108,159)" stroke-width="1" opacity="1" d="M 35.5 26 L 37 29 Q 33.48 30.13 35.5 26 Z " /><path fill="rgb(141,108,159)" stroke="rgb(141,108,159)" stroke-width="1" opacity="1" d="M 43.5 26 L 45 29 Q 41.48 30.13 43.5 26 Z " /><path fill="rgb(141,108,159)" stroke="rgb(141,108,159)" stroke-width="1" opacity="1" d="M 51.5 26 L 53 29 Q 49.48 30.13 51.5 26 Z " /><path fill="rgb(141,108,159)" stroke="rgb(141,108,159)" stroke-width="1" opacity="1" d="M 11 45 Q 14 44 13 47 Q 10 48 11 45 Z " /><path fill="rgb(141,108,159)" stroke="rgb(141,108,159)" stroke-width="1" opacity="1" d="M 16 45 Q 19 44 18 47 Q 15 48 16 45 Z " /><path fill="rgb(141,108,159)" stroke="rgb(141,108,159)" stroke-width="1" opacity="1" d="M 21 45 Q 24 44 23 47 Q 20 48 21 45 Z " /><path fill="rgb(141,108,159)" stroke="rgb(141,108,159)" stroke-width="1" opacity="1" d="M 26 45 Q 29 44 28 47 Q 25 48 26 45 Z " /><path fill="rgb(141,108,159)" stroke="rgb(141,108,159)" stroke-width="1" opacity="1" d="M 31 45 Q 34 44 33 47 Q 30 48 31 45 Z " /><path fill="rgb(141,108,159)" stroke="rgb(141,108,159)" stroke-width="1" opacity="1" d="M 23.5 56 L 26 57.5 L 24.5 60 L 22 58.5 L 23.5 56 Z " /><path fill="rgb(222,197,170)" stroke="rgb(222,197,170)" stroke-width="1" opacity="1" d="M 30.5 16 L 30.5 17 L 30.5 16 Z " /><path fill="rgb(222,197,170)" stroke="rgb(222,197,170)" stroke-width="1" opacity="1" d="M 57.5 16 L 57.5 17 L 57.5 16 Z " /><path fill="rgb(222,197,170)" stroke="rgb(222,197,170)" stroke-width="1" opacity="1" d="M 34.5 26 L 34.5 27 L 34.5 26 Z " /><path fill="rgb(222,197,170)" stroke="rgb(222,197,170)" stroke-width="1" opacity="1" d="M 37.5 26 L 37.5 27 L 37.5 26 Z " /><path fill="rgb(222,197,170)" stroke="rgb(222,197,170)" stroke-width="1" opacity="1" d="M 42.5 26 L 42.5 27 L 42.5 26 Z " /><path fill="rgb(222,197,170)" stroke="rgb(222,197,170)" stroke-width="1" opacity="1" d="M 45.5 26 L 45.5 27 L 45.5 26 Z " /><path fill="rgb(222,197,170)" stroke="rgb(222,197,170)" stroke-width="1" opacity="1" d="M 50.5 26 L 50.5 27 L 50.5 26 Z " /><path fill="rgb(222,197,170)" stroke="rgb(222,197,170)" stroke-width="1" opacity="1" d="M 53.5 26 L 53.5 27 L 53.5 26 Z " /><path fill="rgb(222,197,170)" stroke="rgb(222,197,170)" stroke-width="1" opacity="1" d="M 34.5 29 L 34.5 30 L 34.5 29 Z " /><path fill="rgb(222,197,170)" stroke="rgb(222,197,170)" stroke-width="1" opacity="1" d="M 37.5 29 L 37.5 30 L 37.5 29 Z " /><path fill="rgb(222,197,170)" stroke="rgb(222,197,170)" stroke-width="1" opacity="1" d="M 42.5 29 L 42.5 30 L 42.5 29 Z " /><path fill="rgb(222,197,170)" stroke="rgb(222,197,170)" stroke-width="1" opacity="1" d="M 45.5 29 L 45.5 30 L 45.5 29 Z " /><path fill="rgb(222,197,170)" stroke="rgb(222,197,170)" stroke-width="1" opacity="1" d="M 50.5 29 L 50.5 30 L 50.5 29 Z " /><path fill="rgb(222,197,170)" stroke="rgb(222,197,170)" stroke-width="1" opacity="1" d="M 53.5 29 L 53.5 30 L 53.5 29 Z " /><path fill="rgb(222,197,170)" stroke="rgb(222,197,170)" stroke-width="1" opacity="1" d="M 30.5 39 L 30.5 40 L 30.5 39 Z " /><path fill="rgb(222,197,170)" stroke="rgb(222,197,170)" stroke-width="1" opacity="1" d="M 57.5 39 L 57.5 40 L 57.5 39 Z " /><path fill="rgb(222,197,170)" stroke="rgb(222,197,170)" stroke-width="1" opacity="1" d="M 42.5 41 L 42.5 42 L 42.5 41 Z " /><path fill="rgb(222,197,170)" stroke="rgb(222,197,170)" stroke-width="1" opacity="1" d="M 38.5 42 L 39 43.5 L 38 43.5 L 38.5 42 Z " /><path fill="rgb(222,197,170)" stroke="rgb(222,197,170)" stroke-width="1" opacity="1" d="M 41.5 43 L 42 43.5 L 39.5 46 L 39 45.5 L 41.5 43 Z " /><path fill="rgb(249,226,174)" stroke="rgb(249,226,174)" stroke-width="1" opacity="1" d="M 38.5 40 L 39 41.5 L 38 41.5 L 38.5 40 Z " /><path fill="rgb(249,226,174)" stroke="rgb(249,226,174)" stroke-width="1" opacity="1" d="M 42.5 40 L 42.5 41 L 42.5 40 Z " /><path fill="rgb(249,226,174)" stroke="rgb(249,226,174)" stroke-width="1" opacity="1" d="M 38.5 44 L 38.5 45 L 38.5 44 Z " /><path fill="rgb(249,227,174)" stroke="rgb(249,227,174)" stroke-width="1" opacity="1" d="M 31.5 16 L 56.5 16 L 58 17.5 L 58 38.5 L 56.5 40 L 42.5 40 Q 41.75 39.75 42 42.5 L 38.5 46 L 38 45.5 L 39 44.5 L 39 40 L 31.5 40 L 30 38.5 L 30 17.5 L 31.5 16 Z M 34 26 L 34 30 L 38 30 L 38 26 L 34 26 Z M 42 26 L 42 30 L 46 30 L 46 26 L 42 26 Z M 50 26 L 50 30 L 54 30 L 54 26 L 50 26 Z " /><path fill="rgb(197,228,250)" stroke="rgb(197,228,250)" stroke-width="1" opacity="1" d="M 8 10 L 31 10.5 L 8.5 33 L 8 32.5 L 8 10 Z M 15 13 L 11 17 L 15 20 L 18 17 L 15 13 Z " /><path fill="rgb(197,228,250)" stroke="rgb(197,228,250)" stroke-width="1" opacity="1" d="M 37.5 10 L 40 10.5 L 36.5 14 L 34.5 14 L 34 13.5 L 37.5 10 Z " /><path fill="rgb(197,228,250)" stroke="rgb(197,228,250)" stroke-width="1" opacity="1" d="M 27.5 20 L 28 22.5 L 23.5 27 L 22.5 26 L 20 28.5 L 21 29.5 L 8.5 42 L 8 39.5 L 27.5 20 Z " /><path fill="rgb(197,228,250)" stroke="rgb(197,228,250)" stroke-width="1" opacity="1" d="M 27.5 30 L 28 32.5 L 13.5 47 L 13 46.5 L 13 44.5 L 27.5 30 Z " /><path fill="rgb(197,228,250)" stroke="rgb(197,228,250)" stroke-width="1" opacity="1" d="M 34.5 42 Q 37.13 41.17 36 44.5 Q 34 45.62 35 49 Q 38.38 50 39.5 48 L 40 52 L 25 51.5 L 30.5 46 L 31 46.5 Q 30.33 49.13 33 48 L 33 43.5 L 34.5 42 Z " /><path fill="rgb(197,228,250)" stroke="rgb(197,228,250)" stroke-width="1" opacity="1" d="M 10.5 47 L 12 48.5 L 8.5 52 L 8 49.5 L 10.5 47 Z " /><path fill="rgb(153,130,171)" stroke="rgb(153,130,171)" stroke-width="1" opacity="0.9725490196078431" d="M 10.5 2 L 11 2.5 L 8.5 5 L 8 4.5 L 10.5 2 Z " /><path fill="rgb(153,130,171)" stroke="rgb(153,130,171)" stroke-width="1" opacity="0.9725490196078431" d="M 37.5 2 L 40 4.5 L 39.5 5 L 37 2.5 L 37.5 2 Z " /><path fill="rgb(153,130,171)" stroke="rgb(153,130,171)" stroke-width="1" opacity="0.9725490196078431" d="M 18.5 4 L 19 5.5 L 18 5.5 L 18.5 4 Z " /><path fill="rgb(153,130,171)" stroke="rgb(153,130,171)" stroke-width="1" opacity="0.9725490196078431" d="M 21.5 4 L 22 5.5 L 21 5.5 L 21.5 4 Z " /><path fill="rgb(153,130,171)" stroke="rgb(153,130,171)" stroke-width="1" opacity="0.9725490196078431" d="M 24.5 4 L 25 5.5 L 24 5.5 L 24.5 4 Z " /><path fill="rgb(153,130,171)" stroke="rgb(153,130,171)" stroke-width="1" opacity="0.9725490196078431" d="M 29.5 4 L 30 5.5 L 29 5.5 L 29.5 4 Z " /><path fill="rgb(153,130,171)" stroke="rgb(153,130,171)" stroke-width="1" opacity="0.9725490196078431" d="M 30.5 14 L 30.5 15 L 30.5 14 Z " /><path fill="rgb(153,130,171)" stroke="rgb(153,130,171)" stroke-width="1" opacity="0.9725490196078431" d="M 28.5 16 L 28.5 17 L 28.5 16 Z " /><path fill="rgb(153,130,171)" stroke="rgb(153,130,171)" stroke-width="1" opacity="0.9725490196078431" d="M 36.5 26 L 38 28.5 L 35.5 30 L 34 27.5 L 35 27.5 Q 34.33 30.13 37 29 L 36.5 26 Z " /><path fill="rgb(153,130,171)" stroke="rgb(153,130,171)" stroke-width="1" opacity="0.9725490196078431" d="M 44.5 26 L 46 28.5 L 43.5 30 L 42 27.5 L 43 27.5 Q 42.33 30.13 45 29 L 44.5 26 Z " /><path fill="rgb(153,130,171)" stroke="rgb(153,130,171)" stroke-width="1" opacity="0.9725490196078431" d="M 52.5 26 L 54 28.5 L 51.5 30 L 50 27.5 L 51 27.5 Q 50.33 30.13 53 29 L 52.5 26 Z " /><path fill="rgb(153,130,171)" stroke="rgb(153,130,171)" stroke-width="1" opacity="0.9725490196078431" d="M 28.5 39 L 28.5 40 L 28.5 39 Z " /><path fill="rgb(153,130,171)" stroke="rgb(153,130,171)" stroke-width="1" opacity="0.9725490196078431" d="M 37.5 40 L 37.5 41 L 37.5 40 Z " /><path fill="rgb(153,130,171)" stroke="rgb(153,130,171)" stroke-width="1" opacity="0.9725490196078431" d="M 43.5 40 L 43.5 41 L 43.5 40 Z " /><path fill="rgb(153,130,171)" stroke="rgb(153,130,171)" stroke-width="1" opacity="0.9725490196078431" d="M 30.5 41 L 30.5 42 L 30.5 41 Z " /><path fill="rgb(153,130,171)" stroke="rgb(153,130,171)" stroke-width="1" opacity="0.9725490196078431" d="M 36.5 42 L 37 43.5 L 36 43.5 L 36.5 42 Z " /><path fill="rgb(153,130,171)" stroke="rgb(153,130,171)" stroke-width="1" opacity="0.9725490196078431" d="M 42.5 42 L 42.5 43 L 42.5 42 Z " /><path fill="rgb(153,130,171)" stroke="rgb(153,130,171)" stroke-width="1" opacity="0.9725490196078431" d="M 11.5 44 L 13 44.5 L 11.5 45 L 11.5 44 Z " /><path fill="rgb(153,130,171)" stroke="rgb(153,130,171)" stroke-width="1" opacity="0.9725490196078431" d="M 16.5 44 L 18 44.5 L 16.5 45 L 16.5 44 Z " /><path fill="rgb(153,130,171)" stroke="rgb(153,130,171)" stroke-width="1" opacity="0.9725490196078431" d="M 21.5 44 L 23 44.5 L 21.5 45 L 21.5 44 Z " /><path fill="rgb(153,130,171)" stroke="rgb(153,130,171)" stroke-width="1" opacity="0.9725490196078431" d="M 26.5 44 L 28 44.5 L 26.5 45 L 26.5 44 Z " /><path fill="rgb(153,130,171)" stroke="rgb(153,130,171)" stroke-width="1" opacity="0.9725490196078431" d="M 31.5 44 L 33 44.5 L 31.5 45 L 31.5 44 Z " /><path fill="rgb(153,130,171)" stroke="rgb(153,130,171)" stroke-width="1" opacity="0.9725490196078431" d="M 37.5 45 Q 40 46 38.5 47 Q 35.71 47.67 37.5 45 Z " /><path fill="rgb(153,130,171)" stroke="rgb(153,130,171)" stroke-width="1" opacity="0.9725490196078431" d="M 11.5 47 L 13 47.5 L 11.5 48 L 11.5 47 Z " /><path fill="rgb(153,130,171)" stroke="rgb(153,130,171)" stroke-width="1" opacity="0.9725490196078431" d="M 16.5 47 L 18 47.5 L 16.5 48 L 16.5 47 Z " /><path fill="rgb(153,130,171)" stroke="rgb(153,130,171)" stroke-width="1" opacity="0.9725490196078431" d="M 21.5 47 L 23 47.5 L 21.5 48 L 21.5 47 Z " /><path fill="rgb(153,130,171)" stroke="rgb(153,130,171)" stroke-width="1" opacity="0.9725490196078431" d="M 26.5 47 L 28 47.5 L 26.5 48 L 26.5 47 Z " /><path fill="rgb(153,130,171)" stroke="rgb(153,130,171)" stroke-width="1" opacity="0.9725490196078431" d="M 31.5 47 L 33 47.5 L 31.5 48 L 31.5 47 Z " /><path fill="rgb(153,130,171)" stroke="rgb(153,130,171)" stroke-width="1" opacity="0.9725490196078431" d="M 35.5 47 L 36 48.5 L 35 48.5 L 35.5 47 Z " /><path fill="rgb(153,130,171)" stroke="rgb(153,130,171)" stroke-width="1" opacity="0.9725490196078431" d="M 37.5 48 L 37.5 49 L 37.5 48 Z " /><path fill="rgb(153,130,171)" stroke="rgb(153,130,171)" stroke-width="1" opacity="0.9725490196078431" d="M 8.5 59 L 11 61.5 L 10.5 62 L 8 59.5 L 8.5 59 Z " /><path fill="rgb(153,130,171)" stroke="rgb(153,130,171)" stroke-width="1" opacity="0.9725490196078431" d="M 39.5 59 L 40 59.5 L 37.5 62 L 37 61.5 L 39.5 59 Z " /><path fill="rgb(235,243,252)" stroke="rgb(235,243,252)" stroke-width="1" opacity="1" d="M 24.5 28 L 25 28.5 L 22.5 31 Q 20 30 21.5 29 Q 23 31.5 24.5 28 Z " /><path fill="rgb(235,243,252)" stroke="rgb(235,243,252)" stroke-width="1" opacity="1" d="M 14.5 37 L 14.5 38 L 14.5 37 Z " /><path fill="rgb(235,243,252)" stroke="rgb(235,243,252)" stroke-width="1" opacity="1" d="M 12.5 38 Q 15 39 13.5 40 Q 11 39 12.5 38 Z " /><path fill="rgb(252,247,248)" stroke="rgb(252,247,248)" stroke-width="1" opacity="1" d="M 14.5 14 Q 19.5 16.5 14.5 19 Q 9.5 16.5 14.5 14 Z " /><path fill="rgb(252,247,248)" stroke="rgb(252,247,248)" stroke-width="1" opacity="1" d="M 22.5 27 Q 25.5 28.5 22.5 30 Q 19.5 28.5 22.5 27 Z " /><path fill="rgb(252,247,248)" stroke="rgb(252,247,248)" stroke-width="1" opacity="1" d="M 13.5 37 Q 16 38 14.5 39 Q 11.71 39.67 13.5 37 Z " /><path fill="rgb(212,235,252)" stroke="rgb(212,235,252)" stroke-width="1" opacity="1" d="M 31.5 10 L 32 10.5 L 8.5 34 L 8 33.5 L 31.5 10 Z " /><path fill="rgb(212,235,252)" stroke="rgb(212,235,252)" stroke-width="1" opacity="1" d="M 36.5 10 L 37 10.5 L 33.5 14 L 33 13.5 L 36.5 10 Z " /><path fill="rgb(212,235,252)" stroke="rgb(212,235,252)" stroke-width="1" opacity="1" d="M 39.5 11 L 40 11.5 L 37.5 14 L 37 13.5 L 39.5 11 Z " /><path fill="rgb(212,235,252)" stroke="rgb(212,235,252)" stroke-width="1" opacity="1" d="M 13.5 14 Q 15 15 12.5 16 Q 11 15 13.5 14 Z " /><path fill="rgb(212,235,252)" stroke="rgb(212,235,252)" stroke-width="1" opacity="1" d="M 15.5 14 Q 18 15 16.5 16 Q 14 15 15.5 14 Z " /><path fill="rgb(212,235,252)" stroke="rgb(212,235,252)" stroke-width="1" opacity="1" d="M 12.5 17 Q 15 18 13.5 19 Q 11 18 12.5 17 Z " /><path fill="rgb(212,235,252)" stroke="rgb(212,235,252)" stroke-width="1" opacity="1" d="M 16.5 17 Q 18 18 15.5 19 Q 14 18 16.5 17 Z " /><path fill="rgb(212,235,252)" stroke="rgb(212,235,252)" stroke-width="1" opacity="1" d="M 27.5 19 L 28 19.5 L 22 25.5 Q 24.25 26.75 21.5 28 L 20.5 27 L 8.5 39 L 8 38.5 L 27.5 19 Z M 22 26 L 22 27 L 22 26 Z " /><path fill="rgb(212,235,252)" stroke="rgb(212,235,252)" stroke-width="1" opacity="1" d="M 27.5 23 L 28 23.5 L 24.5 27 L 24 26.5 L 27.5 23 Z " /><path fill="rgb(212,235,252)" stroke="rgb(212,235,252)" stroke-width="1" opacity="1" d="M 27.5 29 L 28 29.5 L 13.5 44 L 13 43.5 L 27.5 29 Z " /><path fill="rgb(212,235,252)" stroke="rgb(212,235,252)" stroke-width="1" opacity="1" d="M 20.5 30 L 21 30.5 L 14.5 37 L 14 36.5 L 20.5 30 Z " /><path fill="rgb(212,235,252)" stroke="rgb(212,235,252)" stroke-width="1" opacity="1" d="M 27.5 33 L 28 33.5 L 17.5 44 L 17 43.5 L 27.5 33 Z " /><path fill="rgb(212,235,252)" stroke="rgb(212,235,252)" stroke-width="1" opacity="1" d="M 11.5 39 L 12 39.5 L 8.5 43 L 8 42.5 L 11.5 39 Z " /><path fill="rgb(212,235,252)" stroke="rgb(212,235,252)" stroke-width="1" opacity="1" d="M 33.5 42 Q 35 43 32.5 44 Q 31 43 33.5 42 Z " /><path fill="rgb(212,235,252)" stroke="rgb(212,235,252)" stroke-width="1" opacity="1" d="M 15.5 45 L 16 45.5 L 9.5 52 L 9 51.5 L 15.5 45 Z " /><path fill="rgb(212,235,252)" stroke="rgb(212,235,252)" stroke-width="1" opacity="1" d="M 30.5 45 L 31 45.5 L 24.5 52 L 24 51.5 L 30.5 45 Z " /><path fill="rgb(212,235,252)" stroke="rgb(212,235,252)" stroke-width="1" opacity="1" d="M 10.5 46 L 11 46.5 L 8.5 49 L 8 48.5 L 10.5 46 Z " /><path fill="rgb(227,242,255)" stroke="rgb(227,242,255)" stroke-width="1" opacity="1" d="M 32.5 10 L 36 10.5 L 32.5 14 L 29.5 14 L 29 13.5 L 32.5 10 Z " /><path fill="rgb(227,242,255)" stroke="rgb(227,242,255)" stroke-width="1" opacity="1" d="M 39.5 12 L 40 14 L 38 13.5 L 39.5 12 Z " /><path fill="rgb(227,242,255)" stroke="rgb(227,242,255)" stroke-width="1" opacity="1" d="M 27.5 15 L 28 18.5 L 8.5 38 L 8 37.5 L 8 34.5 L 27.5 15 Z " /><path fill="rgb(227,242,255)" stroke="rgb(227,242,255)" stroke-width="1" opacity="1" d="M 27.5 24 L 28 28.5 L 12.5 44 L 11 44 Q 11.5 46.87 8.5 48 L 8 43.5 L 12.5 39 Q 13.75 41.25 15 38.5 L 15 36.5 L 21.5 30 L 22.5 31 L 25 28.5 L 24 27.5 L 27.5 24 Z " /><path fill="rgb(227,242,255)" stroke="rgb(227,242,255)" stroke-width="1" opacity="1" d="M 27.5 34 L 28 42 L 33 42.5 L 28.5 47 L 28 46.5 Q 29 42.75 26 44 Q 25 47.38 27 48.5 L 23.5 52 L 10.5 52 L 10 51.5 L 15.5 46 L 16 48 Q 19.67 49.35 18 43.5 L 27.5 34 Z M 21 44 L 21 48 L 23 48 L 23 44 L 21 44 Z " /></svg>