<?xml version="1.0" standalone="no"?>
<!DOCTYPE svg PUBLIC "-//W3C//DTD SVG 1.0//EN" "http://www.w3.org/TR/2001/REC-SVG-20010904/DTD/svg10.dtd">
<svg xmlns="http://www.w3.org/2000/svg" xmlns:xlink="http://www.w3.org/1999/xlink" id="body_1" width="512" height="384">

<g transform="matrix(0.75 0 0 0.75 64.000015 -0)">
    <path d="M256 0C 114.6 0 0 85.9 0 192C 0 267 57.5 331.8 141.1 363.4L141.1 363.4L85.3 512L245.8 383.6C 249.2 383.7 252.5 384 256 384C 397.4 384 512 298.1 512 192C 512 85.9 397.4 0 256 0zM128 234.7C 104.5 234.7 85.3 215.59999 85.3 192C 85.3 168.40001 104.4 149.3 128 149.3C 151.5 149.3 170.7 168.40001 170.7 192C 170.7 215.59999 151.5 234.7 128 234.7zM256 234.7C 232.5 234.7 213.3 215.59999 213.3 192C 213.3 168.40001 232.40001 149.3 256 149.3C 279.5 149.3 298.7 168.40001 298.7 192C 298.7 215.59999 279.5 234.7 256 234.7zM384 234.7C 360.5 234.7 341.3 215.59999 341.3 192C 341.3 168.40001 360.4 149.3 384 149.3C 407.5 149.3 426.7 168.40001 426.7 192C 426.7 215.59999 407.5 234.7 384 234.7z" stroke="none" fill="#000000" fill-rule="nonzero" />
</g>
</svg>